<svg id="Edgefest" xmlns="http://www.w3.org/2000/svg" viewBox="0 0 820 797.57"><defs><style>.cls-1{fill:#e5ad30;}.cls-2{fill:#df8930;}.cls-3{fill:#c94943;}.cls-4{fill:#2ca2d8;}.cls-5{fill:#ad5377;}.cls-6{fill:#0098d5;}.cls-7{fill:#e5ad2f;}.cls-8{fill:#ca4c46;}.cls-9{fill:#a52b61;}</style></defs><title>Logo_Edgefest_07_ball</title><polygon class="cls-1" points="625.45 210.6 769.22 114.65 651.26 274.86 625.45 210.6"/><polygon class="cls-2" points="769.22 114.65 708.49 262.41 651.26 274.86 769.22 114.65"/><polygon class="cls-2" points="514.14 725.01 545.74 601.56 559.95 747.55 514.14 725.01"/><polygon class="cls-3" points="545.74 601.56 605 705.33 559.95 747.55 545.74 601.56"/><polygon class="cls-1" points="311.77 173.43 316.52 276.65 270.91 166.81 311.77 173.43"/><polygon class="cls-4" points="316.52 276.65 259.62 199.95 270.91 166.81 316.52 276.65"/><polygon class="cls-4" points="346.52 456.36 298.05 615.58 288.07 424.27 346.52 456.36"/><polygon class="cls-5" points="298.05 615.58 253.06 468.48 288.07 424.27 298.05 615.58"/><polygon class="cls-6" points="660.45 586.54 570.24 514.11 696.26 557.11 660.45 586.54"/><polygon class="cls-5" points="570.24 514.11 676.78 523.1 696.26 557.11 570.24 514.11"/><polygon class="cls-4" points="97.61 228.6 165.87 324 222 203 184 106.39 121.61 158.6 97.61 228.6"/><polygon class="cls-1" points="165.87 324 184 106.39 222 203 165.87 324"/><polygon class="cls-6" points="97.61 228.6 184 106.39 121.61 158.6 97.61 228.6"/><polygon class="cls-3" points="444.32 574.82 335.63 514.11 304.21 617.2 345.4 690.26 432.93 633.51 444.32 574.82"/><polygon class="cls-7" points="335.63 514.11 345.4 690.26 304.21 617.2 335.63 514.11"/><polygon class="cls-6" points="444.32 574.82 345.4 690.26 432.93 633.51 444.32 574.82"/><polygon class="cls-2" points="278.25 64.7 253.42 157.7 366.67 173.7 278.25 64.7"/><polygon class="cls-8" points="278.25 64.7 405.42 136.7 366.67 173.7 278.25 64.7"/><polygon class="cls-2" points="193.16 426.03 249.96 463.52 306.76 395.83 193.16 426.03"/><polygon class="cls-8" points="193.16 426.03 291.77 353.54 306.76 395.83 193.16 426.03"/><polygon class="cls-4" points="149.22 335.23 196.55 419.04 288.65 351.23 149.22 335.23"/><polygon class="cls-5" points="149.22 335.23 290.44 297.68 288.65 351.23 149.22 335.23"/><polygon class="cls-7" points="318 193.33 323 278 397.21 258.51 318 193.33"/><polygon class="cls-8" points="318 193.33 419.57 226.37 397.21 258.51 318 193.33"/><polygon class="cls-4" points="408.42 36.67 423.33 153.33 477.33 38 416.64 0 408.42 36.67"/><polygon class="cls-5" points="423.33 153.33 496.67 80 477.33 38 423.33 153.33"/><polygon class="cls-8" points="482.74 110.34 544 76.67 563.48 205.74 471.75 124.78 482.74 110.34"/><polygon class="cls-6" points="601.13 94.92 563.48 205.74 544 76.67 601.13 94.92"/><polygon class="cls-8" points="764.08 356.14 766.08 312.03 680.58 282.03 764.08 356.14"/><polygon class="cls-9" points="680.58 282.03 740.58 321.03 665.08 379.03 680.58 282.03"/><polygon class="cls-7" points="740.58 321.03 764.08 356.14 665.08 379.03 740.58 321.03"/><polygon class="cls-5" points="505.59 246 532.5 203.02 462.9 124.2 505.59 246"/><polygon class="cls-1" points="462.9 124.2 501.62 197.46 392.48 212.37 462.9 124.2"/><polygon class="cls-9" points="501.62 197.46 505.59 246 392.48 212.37 501.62 197.46"/><polygon class="cls-9" points="553.71 558.5 616.95 553.55 593.71 569.23 632.06 604.29 603.07 613.31 543.12 596.76 553.71 558.5"/><polygon class="cls-2" points="616.95 553.55 611 572.4 632.06 604.29 593.71 569.23 616.95 553.55"/><polygon class="cls-6" points="561.81 382.6 663.5 340.36 628.44 374.96 706.01 423.09 658.87 448.03 550 438.85 561.81 382.6"/><polygon class="cls-4" points="663.5 340.36 659.32 374.84 706.01 423.09 628.44 374.96 663.5 340.36"/><polygon class="cls-3" points="679 444.78 786.33 514.11 662.33 494.78 679 444.78"/><polygon class="cls-4" points="786.33 514.11 637 514.11 662.33 494.78 786.33 514.11"/><polygon class="cls-1" points="637 514.11 679 444.78 662.33 494.78 637 514.11"/><polygon class="cls-9" points="542.83 193.33 644.69 275.63 544.13 238.66 542.83 193.33"/><polygon class="cls-3" points="644.69 275.63 509.5 247.17 544.13 238.66 644.69 275.63"/><polygon class="cls-4" points="509.5 247.17 542.83 193.33 544.13 238.66 509.5 247.17"/><polygon class="cls-3" points="292.33 292 397.94 264.47 308.56 352.57 292.33 292"/><polygon class="cls-4" points="397.94 264.47 308.56 390.13 308.56 352.57 397.94 264.47"/><polygon class="cls-1" points="308.56 390.13 292.99 345.79 292.33 292 308.56 352.57 308.56 390.13"/><polygon class="cls-3" points="317 282.03 174.88 321.03 257.06 223.97 317 282.03"/><polygon class="cls-7" points="174.88 321.03 243.66 188.48 257.06 223.97 174.88 321.03"/><polygon class="cls-5" points="243.66 188.48 317 282.03 257.06 223.97 243.66 188.48"/><polygon class="cls-6" points="501.87 662.87 382.99 783.69 398.54 671.92 483.05 605.05 501.87 662.87"/><polygon class="cls-5" points="382.99 783.69 486.35 764.11 529.93 632.12 483.05 605.05 501.87 662.87 382.99 783.69"/><polygon class="cls-2" points="504.63 396.68 459.19 498.14 463.67 424 479.84 365.44 504.63 396.68"/><polygon class="cls-5" points="459.19 498.14 518.24 462.46 514.85 371.36 479.84 365.44 504.63 396.68 459.19 498.14"/><polygon class="cls-2" points="623.77 334.57 454.26 322.79 549.52 261.78 655.54 282.55 623.77 334.57"/><polygon class="cls-3" points="454.26 322.79 536.55 388.74 665.49 335.9 655.54 282.55 623.77 334.57 454.26 322.79"/><polygon class="cls-1" points="235.46 472.6 239.13 607.62 183.56 536.93 178 470.42 235.46 472.6"/><polygon class="cls-3" points="239.13 607.62 246.33 466.33 199.87 435.33 178 470.42 220.67 486.33 239.13 607.62"/><polygon class="cls-8" points="557.07 451.86 670.51 452.36 609.69 497.14 553.71 500.05 557.07 451.86"/><polygon class="cls-2" points="670.51 452.36 552.09 442.57 539.5 503.25 553.71 500.05 568.2 464.65 670.51 452.36"/><polygon class="cls-5" points="428.48 237.54 540.86 260.78 455 316.33 426.1 296.67 428.48 237.54"/><polygon class="cls-2" points="540.86 260.78 425.41 227.33 397.94 275.63 426.1 296.67 436.96 252.45 540.86 260.78"/><polygon class="cls-8" points="282.4 603.42 207.1 797.57 282.2 728.02 287.22 745.76 341.46 707.82 282.4 603.42"/><polygon class="cls-7" points="207.1 797.57 206.33 664 228.5 690.5 282.4 603.42 207.1 797.57"/><polygon class="cls-2" points="206.33 664 282.4 603.42 228.5 690.5 206.33 664"/><polygon class="cls-4" points="395.1 276.76 418.46 442.57 442.92 391.82 454.39 406.26 489.83 350.35 395.1 276.76"/><polygon class="cls-5" points="418.46 442.57 334.94 359.33 384.4 377.65 395.1 276.76 418.46 442.57"/><polygon class="cls-1" points="334.94 359.33 395.1 276.76 384.4 377.65 334.94 359.33"/><polygon class="cls-2" points="180.2 538.57 32.78 681.85 216.72 585.94 180.2 538.57"/><polygon class="cls-4" points="32.78 681.85 175.67 480 180.2 538.57 32.78 681.85"/><polygon class="cls-1" points="193.93 436.77 61.88 449.12 25.95 363.66 101.28 398.99 48.28 331.15 144.66 342.87 193.93 436.77"/><polygon class="cls-9" points="61.88 449.12 154.14 504.07 193.93 436.77 61.88 449.12"/><polygon class="cls-8" points="61.88 449.12 9.73 410.79 25.95 363.66 61.88 449.12"/><polygon class="cls-3" points="536.11 501.72 561.7 383.13 536.25 395.54 527.32 496.15 536.11 501.72"/><polygon class="cls-7" points="527.32 496.15 536.25 395.54 514.85 371.36 518.05 490.28 527.32 496.15"/><polygon class="cls-6" points="242.1 596.41 249.96 479.44 270.76 606.78 242.1 596.41"/><polygon class="cls-1" points="249.96 479.44 283.46 584.35 270.76 606.78 249.96 479.44"/><polygon class="cls-2" points="349.74 458.61 338.21 508 429.61 560 349.74 458.61"/><polygon class="cls-8" points="429.61 560 369.23 503.24 417.49 451.49 429.61 560"/><polygon class="cls-1" points="369.23 503.24 349.74 458.61 417.49 451.49 369.23 503.24"/><polygon class="cls-2" points="332 361.55 291.56 419.04 351.5 453.44 332 361.55"/><polygon class="cls-8" points="332 361.55 416.78 447.69 351.5 453.44 332 361.55"/><polygon class="cls-2" points="443.91 401.21 421.11 446.42 433.56 554.28 456 492.64 460.21 421.06 443.91 401.21"/><polygon class="cls-4" points="433.56 554.28 443.91 401.21 460.21 421.06 456 492.64 433.56 554.28"/><polygon class="cls-2" points="441.5 570.17 531 629 549.59 546.78 512.22 482.33 448.47 539.38 441.5 570.17"/><polygon class="cls-8" points="531 629 517.5 498.14 549.59 546.78 531 629"/><polygon class="cls-5" points="441.5 570.17 512.22 482.33 514.43 468.33 459.19 503.24 441.5 570.17"/><polygon class="cls-1" points="527.32 502.75 559 553.5 610.25 552.5 565.25 514.11 527.32 502.75"/><polygon class="cls-4" points="527.32 502.75 610.25 552.5 559 553.5 527.32 502.75"/><polygon class="cls-5" points="548.25 505.74 608.75 501.72 667.22 458.61 628.44 515.75 548.25 505.74"/><polygon class="cls-2" points="548.25 505.74 608.75 501.72 628.44 515.75 548.25 505.74"/><polygon class="cls-2" points="448.25 579.25 436.29 638.81 446.88 618.67 454 623.25 448.25 579.25"/><polygon class="cls-9" points="479.25 602.75 454 623.25 448.25 579.25 479.25 602.75"/><polygon class="cls-4" points="318 172.5 318 188.48 384 209 419.57 166.81 412.11 133.81 370.5 179.5 318 172.5"/><polygon class="cls-2" points="384 209 389.3 158.86 418.46 166.81 384 209"/><polygon class="cls-9" points="412.11 133.81 419.57 166.81 389.3 158.86 412.11 133.81"/><polygon class="cls-3" points="257.06 196 243.66 182.33 253.42 161.33 267.33 165.67 257.06 196"/><polygon class="cls-5" points="229 203.67 189 104 226.67 137.67 272.67 63.67 229 203.67"/><polygon class="cls-3" points="189 104 229 203.67 226.67 137.67 189 104"/><polygon class="cls-2" points="676.5 383.13 713.5 423.09 682.92 440.5 820 398.5 676.5 383.13"/><polygon class="cls-9" points="682.92 440.5 720.5 463.5 820 398.5 682.92 440.5"/><polygon class="cls-6" points="561.08 608.58 699 776 621.08 620.58 561.08 608.58"/><polygon class="cls-7" points="699 776 657.08 592.08 630.08 575.58 640.58 604.08 621.08 620.58 699 776"/><polygon class="cls-3" points="621.08 620.58 661 615.33 657.08 592.08 630.08 575.58 640.58 604.08 621.08 620.58"/><polygon class="cls-5" points="139 336.5 47.5 324.5 0 169 104 258 160.5 324 124.5 312.5 139 336.5"/><polygon class="cls-2" points="124.5 312.5 104 258 160.5 324 124.5 312.5"/><polygon class="cls-4" points="124.5 312.5 47.5 324.5 139 336.5 124.5 312.5"/><polygon class="cls-6" points="218 590.5 241.5 617.5 244.5 602 267.5 610.5 205 658.5 150.5 626 218 590.5"/><polygon class="cls-9" points="267.5 610.5 244.5 602 205 658.5 267.5 610.5"/><polygon class="cls-5" points="568 207 640.5 266.5 589 144.5 568 207"/><polygon class="cls-4" points="568 207 617.5 212.75 640.5 266.5 568 207"/><polygon class="cls-1" points="107 480 150 506.5 114 556.5 130.5 512 107 480"/><polygon class="cls-3" points="114 556.5 118.5 514 107 480 130.5 512 114 556.5"/><polygon class="cls-5" points="349 699 392 669 380 744 376 694 349 699"/><polygon class="cls-7" points="380 744 366 707 349 699 376 694 380 744"/></svg>